<ttFont>
<head>
    <!-- Most of this table will be recalculated by the compiler -->
    <tableVersion value="1.0"/>
    <fontRevision value="1.0"/>
    <checkSumAdjustment value="0x63c02559"/>
    <magicNumber value="0x5f0f3cf5"/>
    <flags value="00000000 00001011"/>
    <unitsPerEm value="1000"/>
    <created value="Thu Jun 18 17:03:26 2015"/>
    <modified value="Thu Jun 18 17:33:44 2015"/>
    <xMin value="5"/>
    <yMin value="-215"/>
    <xMax value="760"/>
    <yMax value="670"/>
    <macStyle value="00000000 01000001"/>
    <lowestRecPPEM value="8"/>
    <fontDirectionHint value="2"/>
    <indexToLocFormat value="0"/>
    <glyphDataFormat value="0"/>
  </head>
          <CharString index="0">
            -36 29 -30 37 36 29 30 36 36 -29 30 -36 -37 -29 -30 -36 vhcurveto
            return
          </CharString>
        <CharString name=".notdef">
          -70 0 50 433 50 hstem
          50 50 300 50 vstem
          50 hmoveto
          400 533 -400 hlineto
          50 -483 rmoveto
          433 300 -433 vlineto
          endchar
        </CharString>
        <CharString name="si_A">
          3 -4 36 168 30 56 23 80 44 hstemhm
          33 146 133 32 12 32 -4 4 32 25 8 75 hintmask 1111110111000000
          428 200 rmoveto
          51 49 25 56 hvcurveto
          0 78 -83 10 0 34 0 11 6 4 6 3 rrcurveto
          -19 -3 -17 -14 rlineto
          0 -2 -1 -6 0 -2 0 -22 6 -9 11 -17 9 -14 7 -21 0 -24 0 -33 -13 -24 -29 0 -7 0 -11 1 -9 5 rrcurveto
          -29 vlineto
          16 -5 15 -2 13 0 rrcurveto
          36 224 rmoveto
          -25 11 rlineto
          -20 -5 -21 -12 -15 -18 rrcurveto
          hintmask 1111111011000000
          -19 -22 -8 -28 0 -37 rrcurveto
          -528 32 526 vlineto
          0 39 5 44 71 30 rrcurveto
          59 -373 rmoveto
          34 vlineto
          -43 -33 -62 -20 -88 0 rrcurveto
          -93 -58 56 76 36 14 86 108 hvcurveto
          43 hlineto
          0 1 0 2 0 1 rrcurveto
          92 -49 51 -84 -57 -48 -23 -41 -24 19 -16 22 vhcurveto
          25 0 15 15 7 14 6 12 6 19 36 0 46 0 23 -41 1 -39 rrcurveto
          -110 hlineto
          -108 -61 -61 -88 -98 85 -66 164 hvcurveto
          104 0 86 21 51 34 rrcurveto
          endchar
        </CharString>
        <CharString name="si_Ca">
          0 132 136 34 -27 27 89 40 120 26 hstemhm
          64 57 -38 82 120 34 204 52 hintmask 1011101110000000
          319 275 rmoveto
          0 3 0 9 0 3 rrcurveto
          86 -43 56 -88 -55 -50 -26 -47 vhcurveto
          hintmask 1011110110000000
          -26 18 -12 20 vhcurveto
          hintmask 1011101110000000
          29 0 8 15 6 19 6 16 12 20 36 0 36 0 31 -33 0 -50 0 -2 0 -2 0 -2 rrcurveto
          -15 hlineto
          -37 0 -41 -12 -34 -12 -26 -5 -19 -11 -16 -14 rrcurveto
          hintmask 1011110110000000
          -23 -20 -10 -32 0 -31 rrcurveto
          -119 110 -46 121 183 97 114 160 169 -112 134 -160 vhcurveto
          -98 0 -72 -37 -49 -70 rrcurveto
          34 hlineto
          44 52 62 29 79 0 rrcurveto
          134 86 -108 -119 -116 -72 -76 -153 -90 -87 16 54 hvcurveto
          0 18 9 20 28 15 23 12 33 8 55 0 rrcurveto
          -121 hmoveto
          167 0 -32 27 rlineto
          hintmask 1101100110000000
          -270 -34 hlineto
          16 3 48 3 71 1 rrcurveto
          endchar
        </CharString>
        <CharString name="si_DIi">
          77 0 132 154 29 73 44 27 25 96 90 hstemhm
          46 59 -28 61 160 29 52 33 106 43 -15 52 hintmask 1111110110100000
          259 315 rmoveto
          -244 -29 110 hlineto
          -54 -24 -25 -51 0 -53 0 -85 65 -73 87 0 48 0 36 20 31 39 31 -38 25 -21 62 0 121 0 46 141 0 114 0 111 -45 61 -71 33 rrcurveto
          hintmask 1111101111000000
          52 6 27 37 0 41 0 53 -34 33 -53 18 -45 16 -59 6 -63 0 -139 0 -91 -31 0 -85 0 -96 108 6 139 -5 rrcurveto
          hintmask 1111110110100000
          127 -5 95 -22 0 -146 rrcurveto
          -57 -27 -97 -93 -50 -49 15 49 vhcurveto
          19 -29 -19 vlineto
          -51 -50 -13 -49 -70 -24 33 40 31 26 50 93 vhcurveto
          71 hlineto
          -1 92 -50 54 -79 0 rrcurveto
          -42 -47 -16 -43 -22 18 -14 20 hvcurveto
          16 0 13 5 10 18 15 27 16 1 14 0 rrcurveto
          28 0 30 -30 3 -43 rrcurveto
          153 210 rmoveto
          22 18 20 33 vhcurveto
          hintmask 1111100111000000
          27 28 -14 -31 -24 -22 -14 -32 -32 -20 18 23 hvcurveto
          -3 -46 rmoveto
          -34 7 -60 3 -42 0 rrcurveto
          hintmask 1111101110000000
          -123 1 -12 18 0 18 0 43 87 11 62 0 37 0 39 -3 33 -3 -13 -14 -4 -15 0 -19 0 -12 7 -25 23 -10 rrcurveto
          endchar
        </CharString>
        <CharString name="si_Dda">
          77 0 131 155 29 73 44 122 28 hstem
          46 60 192 29 215 56 vstem
          76 373 rmoveto
          -22 18 -14 20 vhcurveto
          16 0 13 5 10 18 15 27 16 1 14 0 28 0 30 -30 3 -43 rrcurveto
          -244 -29 110 hlineto
          -54 -24 -25 -50 0 -50 0 -81 52 -81 101 0 51 0 33 22 30 37 22 -30 28 -29 65 0 rrcurveto
          119 51 126 132 186 -119 138 -175 hvcurveto
          -94 0 -83 -36 -54 -78 rrcurveto
          35 hlineto
          48 55 62 31 80 0 rrcurveto
          158 86 -125 -141 -93 -53 -64 -75 -61 -26 24 36 hvcurveto
          21 -29 -21 vlineto
          -39 -31 -21 -64 -53 -45 20 54 31 26 50 93 vhcurveto
          71 hlineto
          -1 92 -50 54 -79 0 rrcurveto
          -42 -47 -16 -43 hvcurveto
          endchar
        </CharString>
        <CharString name="si_E">
          25 0 132 136 34 -27 27 57 44 -14 42 hstemhm
          45 63 153 34 -12 33 182 47 hintmask 1010111010000000
          498 296 rmoveto
          -91 -66 -73 -153 -86 -85 16 58 vhcurveto
          0 20 10 18 16 10 23 15 28 6 44 0 rrcurveto
          66 hlineto
          0 3 0 9 0 3 rrcurveto
          73 -38 69 -88 vhcurveto
          hintmask 1001011010000000
          -55 -50 -26 -47 -26 20 -12 18 hvcurveto
          26 0 12 11 8 23 rrcurveto
          hintmask 1010111010000000
          5 16 17 18 23 0 37 0 31 -33 0 -48 0 -2 0 -2 0 -2 rrcurveto
          -10 hlineto
          -37 0 -41 -12 -34 -12 -26 -5 -19 -11 -16 -14 -23 -20 -10 -32 0 -31 rrcurveto
          -119 110 -46 121 183 86 117 128 vhcurveto
          0 70 -13 48 -39 67 -36 62 -71 72 -61 33 rrcurveto
          hintmask 1011010110000000
          -27 -31 -15 -36 0 -50 0 -66 37 -55 63 0 43 0 30 20 15 31 rrcurveto
          13 -23 14 -34 0 -57 rrcurveto
          -369 -21 rmoveto
          162 0 -32 27 rlineto
          hintmask 1100010010000000
          -243 -34 hlineto
          16 3 26 3 71 1 rrcurveto
          321 165 rmoveto
          hintmask 1001010110000000
          -9 -26 -27 -11 -24 0 -48 0 -26 36 0 49 0 35 9 20 9 15 38 -28 48 -46 30 -44 rrcurveto
          endchar
        </CharString>
        <CharString name="si_Ga">
          66 -2 134 -133 27 190 26 84 106 -26 25 hstemhm
          34 46 136 27 55 54 158 76 hintmask 1010111110000000
          233 406 rmoveto
          25 vlineto
          -4 0 -5 1 -4 0 rrcurveto
          -111 -75 -102 -123 -111 63 -98 111 87 57 58 80 66 -32 40 -50 hvcurveto
          -7 0 -8 -2 -6 -3 rrcurveto
          hintmask 0111011110000000
          11 47 30 42 71 0 rrcurveto
          103 46 -84 -76 -68 -41 -72 -107 hvcurveto
          -8 0 -8 1 -8 1 rrcurveto
          -27 vlineto
          11 -1 10 -1 10 0 rrcurveto
          131 86 96 122 115 -64 100 -112 hvcurveto
          -122 0 -62 -115 -10 -125 rrcurveto
          27 hlineto
          0 3 1 9 1 6 5 3 8 3 11 0 rrcurveto
          7 22 -3 -27 hvcurveto
          hintmask 1010111110000000
          -27 -33 -27 -59 -77 -49 40 80 82 56 72 86 vhcurveto
          3 0 5 0 3 0 rrcurveto
          endchar
        </CharString>
        <CharString name="si_Gha">
          107 -1 132 71 30 42 34 -27 27 -19 27 73 42 hstemhm
          51 51 138 41 -2 34 65 45 116 40 0 49 hintmask 1101011011000000
          187 432 rmoveto
          -55 -50 -26 -47 -26 20 -12 18 hvcurveto
          26 0 12 13 8 21 7 20 15 14 23 0 38 0 32 -36 -2 -45 rrcurveto
          -10 hlineto
          -37 0 -54 -13 -34 -12 -52 -16 -41 -41 0 -72 0 -78 57 -77 91 0 19 0 28 3 31 9 rrcurveto
          hintmask 1100111101010000
          3 6 1 23 0 7 0 53 -19 11 10 47 6 28 19 16 35 0 33 0 18 -18 7 -24 12 -45 -24 -27 0 -41 0 -7 1 -24 3 -4 rrcurveto
          31 -8 27 -4 24 0 92 0 72 58 0 108 0 55 -31 53 -47 23 rrcurveto
          hintmask 1100111001100000
          19 11 10 22 0 21 0 54 -47 27 -54 0 -81 0 -49 -62 5 -90 33 7 26 2 36 0 rrcurveto
          hintmask 1101011101010000
          90 41 -38 -48 -50 -53 -22 -44 hvcurveto
          -31 0 -20 4 -8 7 0 14 -2 13 -5 11 -13 34 -32 18 -39 0 -42 0 -35 -22 -11 -42 -3 -9 -1 -9 0 -11 -7 -6 -22 -2 -18 0 rrcurveto
          -41 -50 16 49 hvcurveto
          0 33 24 24 30 14 20 9 23 5 21 0 rrcurveto
          hintmask 1101011011000000
          93 hlineto
          2 83 -35 68 -93 0 rrcurveto
          hintmask 1110011001000000
          -182 -124 rmoveto
          -34 vlineto
          hintmask 1101011001000000
          16 3 55 4 71 0 rrcurveto
          162 0 -32 27 rlineto
          107 2 rmoveto
          5 55 30 25 52 0 rrcurveto
          hintmask 1100111001100000
          29 39 -14 -32 hvcurveto
          0 -18 -8 -12 -9 -7 -14 5 -29 4 -34 0 -26 0 -22 -2 -13 -4 rrcurveto
          endchar
        </CharString>
        <CharString name="si_Ha">
          83 -1 30 -30 133 79 26 41 25 19 110 -52 52 hstemhm
          33 61 111 34 0 24 55 48 175 64 hintmask 0111011011100000
          263 182 rmoveto
          7 21 12 8 13 0 rrcurveto
          14 9 -9 -14 -48 -72 -8 -38 -52 -62 20 55 hvcurveto
          hintmask 0111011101100000
          37 31 34 80 vhcurveto
          hintmask 0111011011100000
          11 0 11 -1 12 -1 rrcurveto
          86 -42 70 -79 -56 -29 -38 -30 -28 17 -11 20 vhcurveto
          14 0 16 7 8 20 9 22 10 6 22 0 rrcurveto
          hintmask 0111101101100000
          32 24 -38 -39 hvcurveto
          -4 0 -3 0 -4 0 rrcurveto
          -94 -67 -57 -91 -94 70 -62 98 95 70 54 92 54 -28 38 -38 hvcurveto
          -9 0 -10 -2 -10 -6 21 59 40 34 80 0 rrcurveto
          91 38 -72 -57 hvcurveto
          hintmask 1011101011100000
          -100 -54 -65 -99 vhcurveto
          -12 0 -12 1 -12 2 rrcurveto
          -29 vlineto
          14 -2 14 -1 13 0 rrcurveto
          123 89 93 119 118 -63 103 -112 hvcurveto
          -101 0 -81 -115 -9 -125 rrcurveto
          endchar
        </CharString>
        <CharString name="si_I">
          23 -160 24 121 29 40 28 22 29 98 30 61 110 hstemhm
          33 62 78 64 -31 32 100 40 -9 70 44 61 hintmask 1111111100110000
          273 14 rmoveto
          -11 0 -1 0 -12 -1 rrcurveto
          -29 vlineto
          10 1 0 0 8 0 rrcurveto
          67 35 -26 -42 -38 -30 -15 -39 -53 -14 22 20 hvcurveto
          0 12 4 11 0 6 rrcurveto
          17 -15 10 -15 -17 -17 -12 -26 -63 63 -21 62 66 75 26 59 vhcurveto
          0 39 -22 24 -33 6 89 16 71 82 0 106 rrcurveto
          155 -100 79 -160 -143 -108 -75 -136 -104 80 -63 107 vhcurveto
          hintmask 1111111011010000
          90 68 36 80 54 -34 37 -58 -46 -34 -36 -46 -40 35 -35 44 hvcurveto
          14 0 19 4 15 12 -16 -24 -40 -14 -53 0 rrcurveto
          -82 -48 50 55 83 74 52 117 127 71 -77 -86 -87 -61 -60 -98 hvcurveto
          -17 0 -17 2 -17 0 rrcurveto
          15 217 rmoveto
          27 23 -21 -28 -27 -22 -22 -28 -27 -23 21 28 27 22 22 28 hvcurveto
          endchar
        </CharString>
        <CharString name="si_Ii">
          -42 0 127 275 28 -18 25 35 28 6 27 43 27 hstemhm
          31 43 43 28 76 28 133 28 1 71 4 28 hintmask 1101111111110000
          410 468 rmoveto
          21 17 17 21 21 17 -17 -21 -21 -17 -17 -21 vhcurveto
          -21 -17 17 21 hvcurveto
          -28 hmoveto
          -107 callsubr
          -237 70 rmoveto
          21 17 17 21 21 17 -17 -21 -21 -17 -17 -21 -21 -17 17 21 vhcurveto
          -28 hmoveto
          -107 callsubr
          53 -116 rmoveto
          -76 -39 -63 -60 0 -110 rrcurveto
          -124 93 -89 124 136 98 102 123 vhcurveto
          0 56 -17 45 -35 40 rrcurveto
          hintmask 1011111111110000
          -42 47 -55 24 -71 0 -9 0 -1 0 -5 -1 47 26 32 20 33 27 49 41 22 24 0 20 0 17 -12 15 -26 0 -33 0 -15 -17 -13 -24 rrcurveto
          -11 -20 -10 -24 -18 -23 -29 -36 -40 -32 -53 -28 rrcurveto
          -96 -172 rmoveto
          102 108 60 78 92 59 -46 -83 -100 -80 -56 -105 -108 -44 65 58 vhcurveto
          endchar
        </CharString>
        <CharString name="si_Ka">
          176 -1 133 -133 29 45 79 135 27 31 89 -47 46 hstemhm
          21 28 -20 82 83 31 56 26 141 67 101 85 hintmask 0011010111110000
          111 323 rmoveto
          7 17 -3 3 7 20 5 15 17 9 14 0 25 0 11 -19 0 -27 0 -6 0 -6 -1 -5 -30 -27 -28 -29 -26 -36 rrcurveto
          hintmask 0011001011110000
          -35 -48 -45 -93 -8 -69 rrcurveto
          28 -11 rlineto
          3 40 13 22 22 0 rrcurveto
          hintmask 1001100111110000
          33 0 -3 -74 87 0 42 0 33 23 17 41 21 -43 34 -21 46 0 rrcurveto
          85 33 69 58 124 -90 64 -120 hvcurveto
          -27 0 -34 -2 -30 -8 30 24 45 17 64 0 rrcurveto
          133 130 -83 -143 hvcurveto
          hintmask 0101100111110000
          -46 -22 -45 -45 vhcurveto
          -17 0 -17 5 -9 7 rrcurveto
          -2 -28 rlineto
          16 -12 20 -1 10 0 rrcurveto
          108 43 111 82 136 -98 106 -150 hvcurveto
          -87 0 -82 -33 -59 -55 rrcurveto
          4 vlineto
          hintmask 0011010111110000
          49 -37 34 -52 -57 -50 -39 -54 -12 6 -31 37 vhcurveto
          15 0 17 8 7 18 rrcurveto
          69 -55 rmoveto
          25 12 39 7 57 0 rrcurveto
          101 46 -43 -46 hvcurveto
          hintmask 1001000011110000
          -42 -28 -24 -41 -38 -34 6 65 vhcurveto
          1 -26 -1 vlineto
          -60 -31 -11 -38 vhcurveto
          hintmask 0011000011110000
          -40 0 -16 20 -32 0 -10 0 -14 -4 -12 -10 10 20 6 14 27 40 16 23 16 18 17 15 rrcurveto
          endchar
        </CharString>
        <CharString name="si_Kha">
          60 -1 29 -28 128 -10 30 135 113 178 27 hstemhm
          32 34 116 30 139 62 120 51 hintmask 1011111110000000
          92 73 rmoveto
          24 21 21 24 24 21 -21 -24 -24 -21 -21 -24 vhcurveto
          -24 -21 21 24 hvcurveto
          -19 30 rmoveto
          -6 17 -1 12 0 12 rrcurveto
          85 83 54 87 92 23 -42 -35 vhcurveto
          0 -32 -13 -28 -52 -62 -42 -50 -29 -39 -13 -13 rrcurveto
          38 -3 rlineto
          42 55 26 20 13 0 rrcurveto
          hintmask 0101111110000000
          27 0 4 -54 64 0 rrcurveto
          108 60 150 136 187 -120 128 -166 hvcurveto
          -112 0 -77 -48 -45 -83 rrcurveto
          35 hlineto
          41 70 65 34 89 0 rrcurveto
          151 88 -108 -152 -103 -29 -83 -60 hvcurveto
          -38 0 8 26 -29 0 -3 0 -3 0 -3 -1 12 19 25 29 0 57 rrcurveto
          85 -80 53 -93 -116 -92 -74 -139 vhcurveto
          hintmask 1011111110000000
          -75 24 -109 85 41 30 38 37 46 -33 28 -42 vhcurveto
          -30 0 -28 -20 -6 -25 rrcurveto
          endchar
        </CharString>
        <CharString name="si_Na">
          236 -1 31 -31 130 153 26 34 91 -50 48 hstemhm
          55 86 81 31 178 67 170 92 hintmask 1011011110000000
          268 296 rmoveto
          34 34 50 12 53 0 rrcurveto
          137 126 -78 -138 -68 -22 -29 -42 hvcurveto
          -16 0 -16 6 -17 10 rrcurveto
          -13 -24 rlineto
          22 -15 24 -7 25 0 rrcurveto
          74 73 64 120 152 -114 98 -140 hvcurveto
          -105 0 -98 -58 -50 -58 0 1 0 1 0 1 rrcurveto
          hintmask 0110111110000000
          67 -34 44 -65 -65 -34 -47 -45 -35 26 -9 16 vhcurveto
          28 0 14 28 2 22 2 25 16 13 22 0 26 0 15 -27 0 -34 0 -13 -1 -13 -7 -11 -82 -77 1 -60 -66 0 -16 0 -17 6 -10 6 rrcurveto
          4 -108 114 -53 134 0 rrcurveto
          122 100 54 116 80 -69 59 -84 hvcurveto
          -28 0 -23 -3 -26 -9 rrcurveto
          66 -14 rmoveto
          60 37 -32 -43 -56 -57 -22 -110 hvcurveto
          -58 0 -46 3 -31 11 64 43 -8 96 149 0 rrcurveto
          endchar
        </CharString>
        <CharString name="si_Os">
          66 0 132 91 31 31 29 94 26 119 25 hstem
          30 40 102 29 42 31 18 26 71 31 118 52 vstem
          274 361 rmoveto
          26 21 21 26 26 21 -21 -26 -26 -21 -21 -26 -26 -21 21 26 vhcurveto
          114 -30 rmoveto
          1 -2 0 -2 0 -1 rrcurveto
          -45 -41 -27 -53 -55 -39 30 53 vhcurveto
          0 3 0 17 0 14 0 30 -8 14 -11 8 -7 5 -8 4 -19 0 rrcurveto
          -74 -44 -100 -108 -97 48 -127 118 hvcurveto
          50 0 37 15 22 40 16 -39 44 -16 41 0 rrcurveto
          137 47 127 127 177 -104 147 -184 hvcurveto
          -127 0 -68 -47 -45 -65 rrcurveto
          32 hlineto
          46 56 59 31 99 0 rrcurveto
          160 80 -117 -124 -88 -37 -91 -96 -65 -22 28 33 hvcurveto
          10 -26 -9 vlineto
          -33 -16 -30 -74 -83 -49 55 88 54 24 75 51 23 4 -12 -20 vhcurveto
          0 -9 0 -19 0 -5 rrcurveto
          -75 53 -41 71 71 53 42 65 59 -36 45 -62 -48 -31 -32 -42 -38 28 -37 47 vhcurveto
          44 0 21 31 5 15 rrcurveto
          endchar
        </CharString>
        <CharString name="si_Pa">
          46 0 132 169 26 66 40 -28 28 hstemhm
          31 59 -33 84 362 38 -23 56 hintmask 11100100
          158 434 rmoveto
          -55 -46 -25 -41 -30 24 -10 16 hvcurveto
          23 0 16 14 6 18 5 19 13 14 32 0 31 0 25 -23 -5 -45 -13 1 -10 1 -13 0 rrcurveto
          hintmask 11011001
          -108 -68 -52 -91 -138 128 -46 148 141 126 56 130 hvcurveto
          0 55 -20 38 -40 24 rrcurveto
          hintmask 11010010
          19 14 8 17 0 20 0 39 -36 40 -66 0 -85 0 -45 -50 15 -87 23 4 24 3 23 0 rrcurveto
          hintmask 11101001
          78 46 -25 -48 -73 -114 -25 -97 -101 -116 21 73 54 50 21 77 hvcurveto
          1 0 35 -2 18 -2 rrcurveto
          17 87 -42 50 -88 0 rrcurveto
          329 -119 rmoveto
          -25 9 -26 4 -33 0 -16 0 -15 -1 -17 -2 rrcurveto
          hintmask 11010010
          -7 52 38 28 46 0 47 0 24 -25 0 -29 0 -13 -5 -12 -11 -11 rrcurveto
          endchar
        </CharString>
        <CharString name="si_Tta">
          33 -1 133 231 28 160 26 hstem
          32 61 402 62 vstem
          93 256 rmoveto
          66 61 41 80 vhcurveto
          32 0 28 -6 27 -13 rrcurveto
          31 vlineto
          -29 11 -33 5 -27 0 rrcurveto
          -106 -94 -68 -115 -127 101 -82 152 162 110 116 156 162 -111 144 -173 hvcurveto
          -96 0 -73 -38 -47 -69 rrcurveto
          35 hlineto
          42 53 61 28 80 0 rrcurveto
          143 77 -119 -115 -125 -94 -60 -123 -90 -95 36 88 hvcurveto
          endchar
        </CharString>
        <CharString name="si_U">
          81 -161 56 374 27 89 46 hstem
          32 147 393 31 vstem
          539 269 rmoveto
          0 2 0 3 0 2 rrcurveto
          94 -70 62 -93 -63 -46 -22 -45 -20 15 -19 29 vhcurveto
          25 0 15 16 8 12 14 23 20 8 20 0 44 0 45 -39 3 -50 rrcurveto
          -241 hlineto
          -143 -89 -86 -111 -161 145 -99 151 152 123 97 133 hvcurveto
          -31 hlineto
          -103 -94 -71 -93 -98 -108 82 140 94 42 58 124 vhcurveto
          endchar
        </CharString>
        <CharString name="si_Va">
          0 132 146 26 85 42 120 26 hstemhm
          33 64 -41 80 121 35 204 52 hintmask 11110111
          292 278 rmoveto
          0 3 0 6 0 3 rrcurveto
          86 -43 56 -88 -55 -50 -26 -47 -26 20 -12 19 vhcurveto
          26 0 9 15 6 19 6 16 13 18 34 0 37 0 31 -31 0 -50 0 -2 0 0 0 -2 rrcurveto
          -58 hlineto
          hintmask 11111011
          -101 -65 -54 -85 -119 113 -46 121 183 98 114 160 169 -112 134 -160 hvcurveto
          -98 0 -72 -37 -49 -70 rrcurveto
          34 hlineto
          44 52 62 29 79 0 rrcurveto
          134 86 -111 -126 -106 -73 -76 -153 -84 -89 16 62 42 38 26 74 hvcurveto
          endchar
        </CharString>
</ttFont>
